<svg width="180" height="66" viewBox="0 0 180 66" fill="none" xmlns="http://www.w3.org/2000/svg">
<path d="M105.241 0H73.8003V5.27725H86.6406V28.7904H92.4005V5.27725H105.241V0Z" fill="#1861AE"/>
<path d="M67.6191 5.27725V0H41.4605C39.8712 0 38.5806 1.29019 38.5806 2.87904V21.5928C38.5806 25.5679 41.8041 28.7904 45.7804 28.7904H67.6191V23.5132H45.7804C44.9858 23.5132 44.3405 22.8681 44.3405 22.0737V5.27725H67.6191Z" fill="#1861AE"/>
<path d="M64.9812 17.0324V11.7551L46.5005 11.7551V17.0324H64.9812Z" fill="#1861AE"/>
<path d="M140.46 5.27725V0H114.302C112.712 0 111.422 1.29019 111.422 2.87904V21.5928C111.422 25.5679 114.645 28.7904 118.622 28.7904H140.46V23.5132H118.622C117.827 23.5132 117.182 22.8681 117.182 22.0737V5.27725H140.46Z" fill="#1861AE"/>
<path d="M137.819 17.0354V11.7581L119.339 11.7581V17.0354H137.819Z" fill="#1861AE"/>
<path d="M21.3726 19.4335H22.3196C27.6224 19.4335 31.9185 15.1359 31.9185 9.83773V6.23892C31.9185 2.79243 29.1252 0 25.6776 0H2.87995C1.2906 0 0 1.29019 0 2.87904V28.7904H5.7599V5.27725H23.2786C24.868 5.27725 26.1586 6.56745 26.1586 8.1563V9.83474C26.1586 12.221 24.2257 14.1533 21.8386 14.1533H8.15887V16.0498L24.4796 28.7875H33.3585L21.3726 19.4306V19.4335Z" fill="#1861AE"/>
<path d="M172.08 0L162.359 10.229L152.64 0H144.721L158.4 14.3952L144.721 28.7904H152.64L180 0H172.08Z" fill="#1861AE"/>
<path d="M164.041 20.3295L172.08 28.7904H180L167.999 16.1633L164.041 20.3295Z" fill="#1861AE"/>
<path d="M24.1122 59.1937C25.0024 58.9727 25.9734 58.6949 26.8905 58.4172L27.2251 60.7497C24.5035 61.5829 21.6415 62.4162 19.362 63.0553L18.8333 60.5824C19.6937 60.3883 20.6676 60.1673 21.752 59.8597V52.4978H19.1947V50.1085H21.752V44.5804H18.9737V42.1912H26.8935V44.5804H24.1152V50.1085H26.3379V52.4978H24.1152V59.1907L24.1122 59.1937ZM36.8927 52.444C36.6418 53.2504 36.3938 54.0269 36.1428 54.7497H43.6713V63.4704C43.6713 64.441 43.504 65.11 42.8647 65.4983C42.2254 65.9134 41.4188 65.997 40.2536 65.997C40.1969 65.3012 39.7816 64.3037 39.447 63.6914C40.17 63.7183 40.7794 63.7183 41.0035 63.7183C41.2545 63.6914 41.3082 63.6347 41.3082 63.3838V56.9388H39.0855V65.7432H36.9734V56.9388H34.7776V65.7432H32.6654V56.9388H30.61V65.9373H28.2767V54.7437H33.7767C33.9709 53.9941 34.1651 53.2146 34.2757 52.4381H27.4134V50.1324H44.1404V52.4381H36.8897L36.8927 52.444ZM43.1724 48.3047H28.5576V41.6118H30.8908V46.0558H34.5296V40.444H36.9196V46.0558H40.7257V41.6118H43.1694V48.3047H43.1724Z" fill="#4B5563"/>
<path d="M72.7039 50.222C74.592 56.2758 78.0665 61.2753 83.4291 63.5809C82.8166 64.1364 81.9293 65.2205 81.5111 65.9702C76.2053 63.3599 72.7876 58.5277 70.7023 52.2499C70.063 54.7497 69.092 57.1927 67.5355 59.4147L68.3123 58.886C70.1197 60.4152 72.3962 62.5804 73.5076 64.0528L71.2012 65.7462C70.284 64.3843 68.2824 62.2758 66.5616 60.6899C64.8378 62.7746 62.5613 64.5516 59.5051 65.9403C59.1168 65.2444 58.3101 64.3305 57.5872 63.775C64.6735 60.7765 67.3115 55.4993 68.3392 50.222H58.3101V47.5849H68.7305C68.9815 45.0284 68.9516 42.5854 68.9815 40.447H71.7868C71.7599 42.6123 71.73 45.0583 71.482 47.5849H82.736V50.222H72.7069H72.7039Z" fill="#4B5563"/>
<path d="M113.937 44.6132C113.937 44.8074 113.937 45.0284 113.881 45.2792C115.38 46.8084 118.353 47.7521 122.022 47.9731C121.523 48.5017 120.883 49.4186 120.632 50.0846C117.466 49.6396 114.935 48.6391 113.188 47.0294C112.187 48.3076 109.991 49.5022 105.214 50.1682C104.963 49.5859 104.38 48.7227 103.908 48.2509H96.8519V46.223H104.909V48.0567C110.938 47.2802 111.577 45.7242 111.577 44.5296V44.1682H109.271C108.659 45.1687 107.965 46.0557 107.242 46.7516C106.824 46.3902 105.88 45.7242 105.298 45.4465C106.744 44.1951 107.882 42.2807 108.494 40.3365L110.801 40.8352C110.633 41.3071 110.466 41.7521 110.272 42.224H118.942L119.303 42.1135L121.081 42.6959C120.384 44.1682 119.44 45.778 118.664 46.8054L116.635 46.0826C116.997 45.5839 117.412 44.8611 117.803 44.1653H113.94V44.6103L113.937 44.6132ZM113.716 61.4455C116.578 62.3893 119.662 63.557 121.553 64.4739L119.219 65.8895C117.525 64.9726 114.607 63.7242 111.745 62.7506L113.355 61.4455H105.047L107.353 62.4998C105.103 63.8616 101.629 65.1936 98.8506 65.9731C98.4054 65.4445 97.4883 64.5007 96.9326 64.0289C99.7677 63.4734 103.018 62.5296 104.933 61.4455H100.461V50.2787H118.577V61.4455H113.713H113.716ZM104.243 43.9204H97.4345V41.9761H104.243V43.9204ZM102.964 53.5042H115.996V51.9214H102.964V53.5042ZM102.964 56.6162H115.996V55.0602H102.964V56.6162ZM102.964 59.8118H115.996V58.2021H102.964V59.8118Z" fill="#4B5563"/>
<path d="M145.665 47.1399H135.662V45.0851H140.413C139.997 44.0578 139.218 42.4749 138.524 41.337L140.386 40.3096C141.082 41.4774 141.915 42.9468 142.304 43.9473L140.469 45.0851H145.665V47.1399ZM136.774 50.8074V48.7795H144.664V50.8074H136.774ZM136.774 52.447H144.691V54.448H136.774V52.447ZM144.691 64.3335H138.799V65.5819H136.771V56.1951H144.688V64.3335H144.691ZM138.799 58.2798V62.2519H142.632V58.2798H138.799ZM158.221 41.9463C158.027 52.223 158 62.5565 159.306 62.9448C159.473 63.0015 159.667 61.1946 159.751 59.334C160.139 59.9731 160.778 60.9169 161.167 61.3052C160.832 65.2504 159.694 66.1374 158.251 65.5281C155.556 64.5844 155.613 55.2783 155.64 44.3923H151.529V52.226H154.78V54.6153H151.529V65.9493H149.112V54.6153H145.668V52.226H149.112V44.3923H145.999V41.9493H158.224L158.221 41.9463Z" fill="#4B5563"/>
</svg>
